<?xml version="1.0" encoding="UTF-8" standalone="no"?>
<!DOCTYPE svg PUBLIC "-//W3C//DTD SVG 20010904//EN"
              "http://www.w3.org/TR/2001/REC-SVG-20010904/DTD/svg10.dtd">

<svg xmlns="http://www.w3.org/2000/svg"
     width="1.66667in" height="2.5in"
     viewBox="0 0 150 225">
  <path id="Selection #1"
        fill="black" stroke="black" stroke-width="1"
        d="M 62.00,16.22
           C 62.00,16.22 72.00,16.22 72.00,16.22
             79.06,16.01 90.21,17.30 97.00,19.16
             102.05,20.54 107.61,22.87 112.00,25.70
             136.01,41.17 137.00,64.38 137.00,90.00
             137.00,90.00 137.00,120.00 137.00,120.00
             137.00,145.14 139.61,170.94 120.83,190.96
             106.89,205.82 86.95,207.22 68.00,207.00
             62.39,206.93 54.41,205.64 49.00,204.09
             43.94,202.64 40.46,200.95 36.00,198.18
             6.71,179.99 11.00,138.84 11.00,109.00
             11.00,109.00 11.00,83.00 11.00,83.00
             11.00,83.00 11.83,74.00 11.83,74.00
             13.17,60.18 14.10,49.86 22.44,38.00
             32.31,23.97 45.92,19.41 62.00,16.22 Z
           M 68.88,25.75
           C 61.42,26.73 51.63,27.89 45.00,31.52
             32.69,38.25 22.18,52.66 22.00,67.00
             22.00,67.00 22.00,102.00 22.00,102.00
             22.00,102.00 22.00,124.00 22.00,124.00
             22.00,124.00 21.00,143.00 21.00,143.00
             21.07,158.55 24.15,176.25 37.00,186.48
             64.59,208.44 126.41,200.21 127.00,150.00
             127.00,150.00 127.00,74.00 127.00,74.00
             126.76,53.89 117.51,38.72 99.00,30.31
             92.81,27.50 91.31,27.64 85.00,26.73
             83.40,26.33 79.43,26.09 79.17,26.43
             78.65,34.74 77.39,37.13 84.05,46.00
             86.40,51.61 86.95,68.18 85.20,74.00
             83.80,78.64 80.24,81.35 79.04,84.96
             79.00,86.30 79.00,93.72 79.00,97.00
             79.00,97.00 67.82,97.18 67.82,97.18
             67.82,97.18 68.06,85.00 68.06,85.00
             65.49,76.01 64.38,81.51 62.72,68.00
             62.39,65.33 61.98,63.81 62.10,61.00
             62.10,61.00 63.63,48.00 63.63,48.00
             66.09,39.36 69.84,42.13 68.88,25.75 Z
           M 76.14,72.96
           C 76.08,71.27 76.17,52.65 76.16,48.00
             75.50,47.36 72.88,47.77 73.00,48.00
             73.00,48.00 72.84,72.96 72.84,72.96
             74.55,73.63 75.58,73.18 76.14,72.96 Z
           M 74.48,30.35M 67.62,93.38"
            />
  <path id="highlight"
        fill="white" stroke="none" stroke-width="1"
        d = "M 24.36,90.09
           C 16.82,78.18 21.75,53.38 33.88,40.25
             38.70,35.78 45.08,31.01 52.12,28.62
             57.83,26.69 64.26,26.83 68.25,25.88
             70.07,31.69 67.65,32.56 68.25,39.00
             65.34,45.18 61.82,45.82 62.91,58.18
             62.25,67.20 64.60,76.61 65.64,79.27
             67.18,82.09 69.82,91.27 68.45,96.00
             57.69,95.34 32.38,100.51 24.36,90.09 Z
           M 40.55,62.36M 72.27,96.55M 52.00,50.18"
            />
</svg>
